<?xml version="1.0" standalone="no"?>
<!DOCTYPE svg PUBLIC "-//W3C//DTD SVG 20010904//EN"
 "http://www.w3.org/TR/2001/REC-SVG-20010904/DTD/svg10.dtd">
<svg version="1.0" xmlns="http://www.w3.org/2000/svg"
 width="47.000000pt" height="45.000000pt" viewBox="0 0 47.000000 45.000000"
 preserveAspectRatio="xMidYMid meet">
<metadata>
Created by potrace 1.11, written by Peter Selinger 2001-2013
</metadata>
<g transform="translate(0.000000,45.000000) scale(0.100000,-0.100000)"
fill="#000000" stroke="none">
<path d="M226 405 c-4 -17 -13 -53 -22 -82 l-14 -52 -78 -3 -77 -3 62 -42 62
-43 -25 -77 c-13 -43 -24 -80 -24 -81 0 -2 23 16 51 40 28 23 56 47 63 52 9 6
31 -5 71 -38 32 -26 59 -45 61 -43 2 2 -7 36 -20 75 l-25 72 62 43 62 42 -77
3 -78 3 -16 57 c-8 31 -19 68 -23 82 l-8 25 -7 -30z"/>
</g>
</svg>
