<?xml version="1.0" standalone="no"?>
<!DOCTYPE svg PUBLIC "-//W3C//DTD SVG 20010904//EN"
 "http://www.w3.org/TR/2001/REC-SVG-20010904/DTD/svg10.dtd">
<svg version="1.0" xmlns="http://www.w3.org/2000/svg"
 width="39.000000pt" height="38.000000pt" viewBox="0 0 39.000000 38.000000"
 preserveAspectRatio="xMidYMid meet">
<metadata>
Created by potrace 1.11, written by Peter Selinger 2001-2013
</metadata>
<g transform="translate(0.000000,38.000000) scale(0.100000,-0.100000)"
fill="#000000" stroke="none">
<path d="M100 275 c-85 -85 -85 -85 -52 -85 l32 0 0 -90 0 -90 35 0 34 0 3 58
3 57 40 0 40 0 3 -57 3 -58 34 0 35 0 0 90 0 90 33 0 c32 0 32 0 -54 85 -47
47 -90 85 -95 85 -5 0 -47 -38 -94 -85z"/>
</g>
</svg>
