<?xml version="1.0" standalone="no"?>
<!DOCTYPE svg PUBLIC "-//W3C//DTD SVG 20010904//EN"
 "http://www.w3.org/TR/2001/REC-SVG-20010904/DTD/svg10.dtd">
<svg version="1.0" xmlns="http://www.w3.org/2000/svg"
 width="41.000000pt" height="46.000000pt" viewBox="0 0 41.000000 46.000000"
 preserveAspectRatio="xMidYMid meet">
<metadata>
Created by potrace 1.11, written by Peter Selinger 2001-2013
</metadata>
<g transform="translate(0.000000,46.000000) scale(0.100000,-0.100000)"
fill="#000000" stroke="none">
<path d="M10 230 l0 -220 195 0 195 0 0 220 0 220 -195 0 -195 0 0 -220z m214
191 c3 -4 19 -11 36 -14 16 -4 30 -12 30 -18 0 -8 -33 -10 -107 -7 l-108 3 -3
-163 -2 -162 130 0 130 0 0 74 c0 41 5 78 10 81 6 4 10 -27 10 -84 l0 -91
-145 0 -145 0 0 181 0 181 28 -2 c34 -3 91 10 98 21 3 5 11 9 19 9 8 0 16 -4
19 -9z m96 -58 c0 -5 -49 -8 -110 -7 l-110 1 0 -139 0 -138 105 0 105 0 0 49
c0 46 -1 48 -24 44 -18 -4 -27 1 -36 17 -14 27 -5 38 19 23 15 -9 21 -4 45 33
17 28 35 44 47 44 18 0 17 -5 -12 -47 -29 -41 -32 -53 -30 -110 l2 -63 -120 0
-121 0 0 143 c0 79 3 147 7 150 9 10 233 9 233 0z"/>
</g>
</svg>
