<?xml version="1.0" standalone="no"?>
<!DOCTYPE svg PUBLIC "-//W3C//DTD SVG 20010904//EN"
 "http://www.w3.org/TR/2001/REC-SVG-20010904/DTD/svg10.dtd">
<svg version="1.0" xmlns="http://www.w3.org/2000/svg"
 width="43.000000pt" height="42.000000pt" viewBox="0 0 43.000000 42.000000"
 preserveAspectRatio="xMidYMid meet">
<metadata>
Created by potrace 1.11, written by Peter Selinger 2001-2013
</metadata>
<g transform="translate(0.000000,42.000000) scale(0.100000,-0.100000)"
fill="#000000" stroke="none">
<path d="M44 365 c-3 -8 4 -31 16 -52 19 -33 21 -46 15 -122 -3 -47 -8 -97
-11 -111 -2 -14 1 -32 6 -40 13 -20 21 -7 56 90 14 41 28 77 30 79 1 2 24 -14
49 -35 42 -34 46 -41 42 -70 -4 -22 -1 -37 9 -45 11 -9 15 -8 18 2 2 8 8 27
13 44 8 24 18 31 52 40 34 8 40 12 30 23 -7 6 -29 12 -49 12 -27 0 -43 7 -61
28 -56 61 -58 56 46 93 78 28 93 36 82 47 -11 10 -36 11 -130 2 -112 -11 -119
-10 -144 9 -30 25 -61 27 -69 6z"/>
</g>
</svg>
